<svg width="20" height="20" fill="none" xmlns="http://www.w3.org/2000/svg"><rect x="1" y="4" width="18" height="15" rx="2" stroke="#A3A1A0" stroke-width="2"/><path d="M1 8c0-1.886 0-2.828.586-3.414C2.172 4 3.114 4 5 4h10c1.886 0 2.828 0 3.414.586C19 5.172 19 6.114 19 8H1z" fill="#A3A1A0"/><path d="M5 1v3m10-3v3" stroke="#A3A1A0" stroke-width="2" stroke-linecap="round"/><rect x="5" y="10" width="4" height="2" rx=".5" fill="#A3A1A0"/><rect x="5" y="14" width="4" height="2" rx=".5" fill="#A3A1A0"/><rect x="11" y="10" width="4" height="2" rx=".5" fill="#A3A1A0"/><rect x="11" y="14" width="4" height="2" rx=".5" fill="#A3A1A0"/></svg>