<svg width="15" height="11" fill="none" xmlns="http://www.w3.org/2000/svg"><path d="M.998 3.927v5.891c0 .542.382.982.85.982h11.9c.47 0 .85-.44.85-.982v-5.89H.998zm4.675 3.928h-2.55c-.235 0-.425-.22-.425-.491s.19-.491.425-.491h2.55c.235 0 .425.22.425.49 0 .272-.19.492-.425.492zm5.95.981a1.18 1.18 0 01-.85-.382 1.18 1.18 0 01-.85.382c-.704 0-1.275-.66-1.275-1.472 0-.813.571-1.473 1.275-1.473.328 0 .624.147.85.382a1.18 1.18 0 01.85-.382c.704 0 1.275.66 1.275 1.473 0 .813-.571 1.472-1.275 1.472zM13.748 0h-11.9c-.468 0-.85.44-.85.982v.982h13.6V.982c0-.541-.38-.982-.85-.982z" fill="#fff"/></svg>