<svg width="23" height="27" fill="none" xmlns="http://www.w3.org/2000/svg"><path d="M22 15.107c0 2.13-1.106 4.172-3.075 5.679-1.97 1.506-4.64 2.352-7.425 2.352s-5.455-.846-7.425-2.352C2.106 19.279 1 17.236 1 15.106c0-3.82 7.798-11.59 9.961-13.675a.71.71 0 01.244-.146.89.89 0 01.604 0 .71.71 0 01.244.146C14.216 3.516 22 11.286 22 15.107zM11.504 1v24.786m10.383-11.1L11.44 20.053m8.37-8.971l-8.298 4.267m5.79-7.829l-5.439 2.796M1 14.686l10.44 5.367m-8.362-8.971l8.299 4.267M5.588 7.52l5.438 2.796" stroke="#82B145" stroke-width="2" stroke-linecap="round" stroke-linejoin="round"/></svg>