<svg width="17" height="16" fill="none" xmlns="http://www.w3.org/2000/svg"><path d="M14.332 3.667a1 1 0 100-2v2zm-9.667 0h9.667v-2H4.665v2zm0 3.333H10V5H4.665v2zM4 4.333c0-.368.298-.666.666-.666v-2A2.667 2.667 0 002 4.333h2zm-2 0A2.667 2.667 0 004.665 7V5A.667.667 0 014 4.333H2z" fill="#fff"/><path d="M3.998 8V4.333h-2V8h2z" fill="#fff"/><path d="M2.998 5.5h-.5v6.533c0 .443 0 .825.041 1.13.044.329.144.643.398.898l.354-.354-.354.354c.255.255.57.354.897.398.306.041.688.041 1.131.041h8.066c.443 0 .825 0 1.13-.041.329-.044.643-.143.898-.398s.354-.57.398-.897c.041-.306.041-.688.041-1.131V11.5h-2.5a1.5 1.5 0 010-3h2.5v-.533c0-.443 0-.825-.041-1.13-.044-.329-.144-.643-.398-.898-.255-.254-.57-.354-.897-.398-.306-.041-.688-.041-1.131-.041H2.998z" fill="#fff" stroke="#fff"/></svg>